<?xml version="1.0" encoding="UTF-8"?>
<svg id="Layer_2" data-name="Layer 2" xmlns="http://www.w3.org/2000/svg" viewBox="0 0 62 58">
  <g>
    <path d="M10.02,57.43c.06.07.25.13.26.03l-.27-.21v.18Z" style="fill: #202020; stroke-width: 0px;"/>
    <path d="M10.88,57.08c-.09-.18-.28-.42-.59-.48.23.24.1.21.39.49-.01.11-.18.11-.28.05.06.07-.14.11.03.25.29,0,.37-.15.26-.4.08,0,.14.07.2.1Z" style="fill: #202020; stroke-width: 0px;"/>
    <path d="M16.09,48.67l-.07.03s.05-.02.07-.03Z" style="fill: #202020; stroke-width: 0px;"/>
    <path d="M19.6,43.68s0,.08.02.1c0-.05.01-.09-.02-.1Z" style="fill: #202020; stroke-width: 0px;"/>
    <path d="M20.5,43.04s-.04.02-.05.04c.04,0,.07,0,.05-.04Z" style="fill: #202020; stroke-width: 0px;"/>
    <path d="M16.09,48.67l.17-.08c-.09-.07-.11.03-.17.08Z" style="fill: #202020; stroke-width: 0px;"/>
    <path d="M10.78,55.5s.01.08.04.12c0-.03,0-.06,0-.09l-.04-.03Z" style="fill: #202020; stroke-width: 0px;"/>
    <path d="M14.93,51.11l-.02.04s.06.07.1.1l-.07-.15Z" style="fill: #202020; stroke-width: 0px;"/>
    <path d="M13.97,52.93s-.2-.18-.3-.26c.09.08.12.14.12.18.05.03.11.05.18.08Z" style="fill: #202020; stroke-width: 0px;"/>
    <path d="M12.01,55.59v.07s0-.05,0-.07Z" style="fill: #202020; stroke-width: 0px;"/>
    <path d="M15.73,49.87s.07.03.1.04c-.03-.02-.06-.03-.1-.04Z" style="fill: #202020; stroke-width: 0px;"/>
    <path d="M53.28,5.88s.02.02.03.04c0-.03-.02-.05-.03-.04Z" style="fill: #202020; stroke-width: 0px;"/>
    <polygon points="56.01 5.34 55.99 5.37 56.09 5.49 56.01 5.34" style="fill: #202020; stroke-width: 0px;"/>
    <path d="M21.92,41.73h0c0,.06,0,.04,0,0Z" style="fill: #202020; stroke-width: 0px;"/>
    <path d="M33.05,28.31c-.32-.03-.01-.46-.42-.43.1.06.13.5.42.43Z" style="fill: #202020; stroke-width: 0px;"/>
    <path d="M10.84,55.47s.02-.05.04-.08c-.03.03-.04.05-.04.08Z" style="fill: #202020; stroke-width: 0px;"/>
    <path d="M32.63,27.88h0s-.04,0-.04,0c.02,0,.03,0,.04,0Z" style="fill: #202020; stroke-width: 0px;"/>
    <path d="M24.45,38.16s-.08-.03-.12-.04c.02.02.06.03.12.04Z" style="fill: #202020; stroke-width: 0px;"/>
    <path d="M22.13,40.49l.08-.04s-.06.03-.08.04Z" style="fill: #202020; stroke-width: 0px;"/>
    <path d="M25.2,36.59s.08,0,.09-.08c-.01,0-.03,0-.04,0,.02.04.01.08-.05.09Z" style="fill: #202020; stroke-width: 0px;"/>
    <polygon points="26.34 35.23 26.28 35.22 26.25 35.28 26.34 35.23" style="fill: #202020; stroke-width: 0px;"/>
    <path d="M49.32,9.57c.08.03.16.08.23.13-.15-.13,0-.36-.23-.13Z" style="fill: #202020; stroke-width: 0px;"/>
    <path d="M10.92,55.57c-.06-.04-.08-.07-.08-.1,0,.02-.01.04-.01.06.04.02.07.04.1.04Z" style="fill: #202020; stroke-width: 0px;"/>
    <path d="M23.53,35.12l.21-.19c-.07.04-.15.11-.21.19Z" style="fill: #202020; stroke-width: 0px;"/>
    <path d="M39.91,18.23l.02-.07s-.03.03-.02.07Z" style="fill: #202020; stroke-width: 0px;"/>
    <path d="M24.26,34.26c.11.02.19.02.25,0,0-.02-.01-.04-.03-.07l-.22.07Z" style="fill: #202020; stroke-width: 0px;"/>
    <path d="M49.55,9.71h0s0,0,0,0Z" style="fill: #202020; stroke-width: 0px;"/>
    <path d="M50.5,7.97c-.21.17.15.35.24.55-.17.29-.29-.1-.5-.17-.09.21.02.56-.1.65-.05-.04-.09-.04-.11-.11.04.36-.46.43-.4.87-.04-.01-.06-.03-.09-.05.15.11.28.25.37.35-.09.08-.01.32-.21.17.06-.04,0-.12-.02-.2l-.03.16c-.32-.18.05-.2-.12-.4-.11.25-.13.65-.34.71-.26-.23.25-.38-.14-.44l.31-.1c-.52-.25.16-.09-.38-.38-.35.18-.21.41-.56.6.06.2.21.19.27.39-.18.62-.89-.35-.89.26.07.24.33.58-.03.61l-.18-.35c-.3.22.21.55-.25.62-.05-.16.13-.29.06-.29-.39-.06.01.28-.13.41l-.26-.23c-.26.31-.42.78-.71,1.12-.05-.09-.06-.22-.21-.23-.3.5-.91.76-1.44.98l.05.36s-.15-.04-.15-.12c-.23.06.12.14.12.3-.07.1-.23-.02-.23-.13-.1.43-.41,1.1-.91,1.14v-.12c-.31.12.15.67-.24.66v-.07c-.57.35-.92,1.03-1.58,1.06.22.37-.6.31-.23.77-.47.04-.47-.11-.99.11-.12.08.1.41.01.58l-.21-.22.05.4-.34-.18-.06.17c.06-.03.2,0,.25.08-.09.28-.6.27-.71.16l-.26.6c-.08-.1-.03-.2-.03-.31-.02.45-.27-.19-.28.22.08.02.11.15.15.2-.24-.04-.48.2-.6.43l-.11-.19c-.36.27-.61.73-.97,1.08.2-.05.43.24.34.37l-.27-.19c.07.21.2-.02.23.29-.16.1-.35-.18-.35-.33l-.09.24c-.08-.06-.07-.13-.15-.23.07.21-.51.04-.36.39l-.08-.06c-.36.35-.45.59-.73.89.19.21.03.27.1.52-.28.15-.67.23-.91.5-.08.28.12.22.15.42-.19-.17-.43.11-.43-.16-.28.34-.36.43-.6.97.12.03.2.02.23.1-.04.1-.24.09-.31-.01v-.04c-.16.71-1.54.49-1.5,1.22v-.04s-.15.56-.15.56c-.19.14-.04-.24-.28-.22-.07.7-.65.59-.75,1.12-.79-.26-.82.94-1.5.96l.15.1c.04.21-.18.04-.27.08.11.08.21.01.23.13-.57.89-1.64,1.41-2.48,2.1-.3.26.54.78-.11.86l-.15-.32c-.23.85-1.09,1.19-1.33,2-.03-.08-.1-.15-.05-.21-.29-.03-.4.45-.25.58-.09.08-.15-.09-.28-.1-.21.03-.03.51-.27.42-.04-.01-.03-.09-.02-.12.02.16-.34.36-.07.46-.29.14-.26.5-.54.57.14.31-.44.28-.13.6-.33-.3-.61.15-.56.43-.07-.13-.21.03-.31-.14-.13.17-.18.37.02.49-.66-.04-.14.88-.82.61-.2.64-.43,1.19-.69,1.69-.34-.29.35-.51-.04-.78-.19.53-.07,1.01-.48,1.35-.13.07-.11-.18-.14-.26-.19.52-.65.79-.74,1.32-.03-.03-.04-.09-.04-.15-.04.08-.18.13-.01.25v-.11c.33.06.29.67.4.78-.38-.48-.39.28-.84-.36,0,.07.03.19.14.26-.09.05-.17.02-.24-.14-.11.33.14.37-.05.61-.08-.06-.07-.13-.15-.23.06.24.13.48-.09.63-.04-.05-.12-.07-.07-.13-.24.37-.03.9-.46,1.18-.27-.36-.21.05-.53-.15l-.06.27.21.02c-.14.18-.02.5-.23.59l-.03-.23-.18.39.25-.12c.03.3.4.25.15.44,0-.07-.13.18-.38.15h0c.03.16.07.32-.1.41-.12-.03-.32-.26-.4-.29.19.27-.23.49-.03.79-.04-.08-.2-.19-.24-.2l.16.22c-.13.04-.17.03-.29-.07-.22.23.45.18.07.38,0-.04-.04-.05-.04-.12-.3.25-.27.69-.57.9-.37-.12.09-.3-.24-.38-.23.45-.21,1.1-.53,1.46l.08-.05c.41.34-.41.16-.33.5,0-.07-.21-.22-.17-.18-.25.23-.25.64-.37,1.15l-.08-.12c-.21.1-.33.4-.49.54.08.12,0,.21.21.26-1,.15-.31,1.25-1.13,1.42.03-.06-.02-.2-.05-.16l-.13.49c.22.08.15.01.36.02.09.12.11.3.05.4-.03-.27-.32-.18-.48-.17.07.02.12.09.19.12-.48.02.38.27-.03.43l-.1-.08c0,.14.07.33-.03.43-.26-.08-.04-.18-.23-.3-.08.18.25.59-.07.61-.02-.11.03-.21.01-.32-.37.02-.31.07-.42.18h.01s-.29.21-.29.21l.12-.03c.49.55-.14.5.1,1.01-.22-.49-.19-.17-.45-.33-.12.03-.26.1-.32.03.14.25-.3.14-.09.5-.09-.04-.09.14-.29,0-.03.21.17.04.27.11.13.43-.7.47-.5,1.09,0,.44.25.65.24,1.05-.19.04-.27-.25-.27-.25-.22.11-.26.26-.24.47-.06-.07-.14-.07-.26-.07-.04.15.27.25.06.36-.08-.08-.22-.19-.28-.31,0,.2.09.43.08.63-.17-.03-.18-.21-.25-.32-.02.22-.1.54.11.72l.15-.08c-.02.07-.23-.07-.24-.14-.11-.25.2-.19.29-.15v.14c.57.13.15-.5.29-.72l.32.28-.19-.39c.12,0,.35.07.35.21.27-.07-.06-.21.22-.25.04,0,.05.02.06.04l-.03-.22c.06.07.28.11.17.18.36-.18-.04-.61.29-.58v.04c.09-.47-.24-.18-.41-.65l.77.14-.25-.18s.09-.11.19-.04c-.11-.25-.13-.04-.26-.22.34-.07.18-.61.63-.42-.16-.18-.26.1-.29-.18.49.19.06-.28.37-.35.21.18-.01.28.3.22-.34-.33.28-.3.29-.49-.31-.18.05-.4.09-.71.1.08.44-.38.69-.55l.05.04c-.29-.23-.1-.44-.06-.65.19.12.24.19.27.34l.09-.17c-.08-.1-.1-.18-.08-.31l.21.18c.11-.23-.04-.61.29-.79-.21-.15-.75-.14-.71-.52.13.06.34.17.34.28,0-.03-.04-.15.04-.17l.13.24c.17-.07-.13-.17-.04-.26.17.1.17,0,.29.09,0,.04-.12.05-.08.12.1-.1.29-.17.44-.14-.1-.05-.23-.14-.2-.23.12-.22.25.05.41-.02-.08-.12.12-.19-.13-.34.04-.06.17,0,.25.02-.04-.18.29-.54-.05-.58l-.04.02s0-.01,0-.02h0s0,0,0,0c-.02-.52.61-.67.73-1.1l.08.05c.04-.28.24-.52.16-.79.04-.06.25-.05.33.04.04-.2-.05-.29.25-.43.03.26.17.03,0,.23.21-.16.38-.12.3-.49.16.22.37.02.38-.12l-.25.05c.05-.13.13-.22.22-.3l.24.24c.62-.2-.05-1.15.73-1.09-.12-.24-.29.14-.45-.12.17-.17.7-.1.75-.16.33-.16-.23-.53.07-.74-.12-.03-.4-.18-.35-.45.17-.17.57.05.57.22-.02.05-.07.05-.1.03,0,.09-.02.2.14.2l-.08-.09c.17-.03.34-.3.45-.13,0-.21-.12-.18-.24-.1.31-.15.27-.39.55-.57-.08,0-.22-.04-.19-.08.39-.28-.06-.29.08-.57.25-.04.31.3.38-.04.21-.08.28.15.31.27-.02-.36.44-.34.57-.44v.18c0-.11.04-.16.09-.22l-.24-.07c.09-.05.13-.11.21-.05-.07-.17-.36-.18-.42-.45.17-.02.11-.37.39-.21-.31.23.28.16.13.44,0-.07.05-.13.14-.17.04.01.04.05.05.08.44-.12-.19-.34.03-.63.11.14.32.13.32.06-.09.12-.28-.12-.31-.31.25-.11.07-.27.16-.36l-.14.07c-.11-.15-.02-.23.03-.39.12.07-.01.18.07.17-.14-.34.5-.14.49-.47.17-.02.27.19.4.16,0-.36.38-.09.42-.44-.24-.08-.21-.03-.26-.34l-.17.49-.08-.46c-.1.11-.08.34-.16.38-.06-.24-.02-.19-.22-.25.41.06.09-.44.42-.48l.46.37c.43-.11.15-.68.55-.94l-.17.05c-.15-.19.15-.24.17-.42.15.13.26.11.4.13-.12-.09.22-.25-.06-.53h.33c.31-.22-.17-.68.1-.92.1.22.31.18.28.46.08-.09.17-.15.07-.24.14.02,0-.43.21-.39-.04-.09-.19-.24-.09-.33.04.01.07.06.07.06-.07-.06.03-.24-.21-.29.71.11.63-.81,1.24-.72.12-.24.27-.52.41-.71.04.05.07.06.03.09.35-.13-.3-.52.09-.67.36.06,0,.26.17.25.53.38.22-.4.67-.34v.07c.28,0,.1-.51.34-.72,0,0,.03.05.07.07-.11-.38.08-.75.21-1.04.13.24,0,.19.24.32.06-.12-.34-.25-.21-.49.16.03.38-.04.61.13l-.16.2c.35.14.21-.25.35-.31l.1.12c.22-.32-.07-.59.23-.88l-.12-.05c-.14-.43.29,0,.23-.36l.34.21c.03-.18.07-.65.2-.9.11.31.01.65.01.91.1-.11.32-.39.22-.58-.01.07,0,.19-.08.19-.11-.34-.06-.63.15-.84.52.55.66-.44,1.25-.19.15-.57.8-.67,1.19-1.14-.58-.25.11-.14-.36-.53.07-.13.11-.16.15-.14l.56-.06c.2.05,0,.19.11.28.25-.19.28.08.54.05-.19-.12-.15-.3.03-.37h-.38c.06-.56.63.07.7-.47l.04.23c.07-.24.58-.59.38-1.09.08.02.24.1.2.2.43-.33.47-1.22.98-1.3l.08.13c.04-.1-.08-.32.12-.31.04.05.08.13.12.11,0-.07,0-.37.16-.41l.04.2c.51-.23.28-.86.52-1.25.31.31.7.12.9.03l.04.05c.48-.39.49-.98.77-1.5.59.1.99-.69,1.58-.89-.12,0-.23-.26-.19-.36.16-.03.05-.48.32-.17l-.04.03c.35.22.47-.05.63-.19l-.34-.41c.93.17.87-1.21,1.56-.91,0-.19.13-.3.14-.49l.19.21c.32-.2.48-.3.77-.67l.07.21c.2-.16-.32-.82-.16-1l.34.26c.32-.32.92-.35.99-.94.04.05.11.15.07.21.16-.14.8-.35.35-.72.26.27.37-.29.44-.58l.16.23c-.09-.4-.15-.48,0-.75.08-.02.19.12.08.13.27-.05-.05-.31.26-.39l.04.2c.19-.14.11-.2.06-.44.03-.18.38-.25.57-.09-.08-.13-.12-.37.03-.41.08.06.08.14.08.17.42-.12.22-.63.6-.61.07.06.11.09.15.09-.24.2-.43.36-.43.33.17.19.39.06.48.45.02-.28,0-.82.26-.9.03.01.05.02.08.04v.04c.06-.02.08-.07.09-.13.09-.02.14-.03.2-.08.16.14.29-.11.39-.18-.2-.2-.04-.28-.31-.35.03,0,0,.04-.05.11,0,.02-.02.04-.02.06v-.02c-.07.06-.14.14-.23.22-.02-.17-.03-.33.18-.31-.07-.18-.14-.36-.17-.45.39.18.78.11.97.26.18-.37.6-.68.43-1.24.04-.12.19.03.28.06-.01.08-.07.13-.05.2.07-.25.45-.47.24-.78.32-.06.11.36.35.06l.04.12c.95-.05.28-1.51,1.4-1.49-.07,0-.11,0-.16-.03.92-.37,1.24-1.52,2.29-1.74.27-.09.13-.29.14-.53l.24.19-.02-.44c.12-.45,1,.11,1.05-.58l-.18-.11c.16-.09.34-.46.47-.27-.01-.04-.1-.2.03-.16l.11.12.15-.49c.33-.14.37.51.76.2.1-.17.09-.69-.03-.72-.06.04-.21.05-.32-.06l.07-.17c-.28-.37-.5-.81-1.03-.79l-.03.4-.22-.11.17-.17c-.24-.07-.18.13-.17.29-.1-.07-.18-.11-.25-.11l.08.52c-.15-.11-.14-.35-.35-.31.04.24.36.22.29.47-.24-.07-.33-.22-.33.02-.1-.08-.12-.15-.11-.24-.01.2-.24.3-.14.53-.28-.1-.32.37-.6.03.04.11.04.43-.05.53-.17-.55-.39.3-.72-.16.18.47-.34.58-.41.99-.01-.04-.04-.12,0-.12-.16.09-.29.01-.44.02.24.31.09.56.14.84-.41-.14-.21-.43-.5-.66.22.23-.07.49.16.64-.28-.06-.18.01-.46-.18.3.39-.06.17.04.48-.34-.02-.35-.3-.45-.02-.19-.03-.13-.31-.13-.31ZM46.37,12.8h0s.07-.08.09-.1c-.02.02-.04.05-.08.1ZM45.98,13.16c.06-.03.12-.09.18-.15.08.06.13.15.09.18-.02-.07-.15-.03-.27-.03ZM48.12,13.86c-.04.09-.09.06-.14.03.03-.03.05-.07.09-.12l-.02-.03s.06.09.07.13Z" style="fill: #202020; stroke-width: 0px;"/>
    <path d="M47.98,13.48s0-.03.01-.04c-.03,0-.06-.01-.08-.01l.04.09.03-.03Z" style="fill: #202020; stroke-width: 0px;"/>
    <path d="M16.02,48.71h.01s-.03,0-.05,0c.02,0,.02,0,.03,0Z" style="fill: #202020; stroke-width: 0px;"/>
    <polygon points="40.24 17.73 40.29 17.78 40.28 17.7 40.24 17.73" style="fill: #202020; stroke-width: 0px;"/>
    <path d="M13.69,50.71s-.05-.01-.08,0c.02,0,.05,0,.08,0Z" style="fill: #202020; stroke-width: 0px;"/>
    <path d="M13.02,51.79l-.18.11c.09-.04.14-.08.18-.11Z" style="fill: #202020; stroke-width: 0px;"/>
    <path d="M12.42,52.57s.07.06.1.07h0s-.1-.07-.1-.07Z" style="fill: #202020; stroke-width: 0px;"/>
    <path d="M20.59,39.41s.01-.02.01-.04c0-.1,0-.04-.01.04Z" style="fill: #202020; stroke-width: 0px;"/>
    <path d="M18.42,43.52c-.01-.07-.03-.14-.03-.2-.06.06-.1.1.03.2Z" style="fill: #202020; stroke-width: 0px;"/>
    <polygon points="23.51 35.14 23.51 35.15 23.53 35.12 23.51 35.14" style="fill: #202020; stroke-width: 0px;"/>
    <path d="M18.52,43.15c-.09.04-.12.1-.12.17.05-.04.12-.09.12-.17Z" style="fill: #202020; stroke-width: 0px;"/>
    <path d="M10.37,56.27l-.03.04s.03.02.04.02v-.06Z" style="fill: #202020; stroke-width: 0px;"/>
    <path d="M10.37,56.33v.06s.02-.04,0-.06Z" style="fill: #202020; stroke-width: 0px;"/>
    <path d="M10.4,56.52v-.13s-.06.07,0,.13Z" style="fill: #202020; stroke-width: 0px;"/>
    <path d="M11.06,55.17l-.08-.06s.04.04.08.06Z" style="fill: #202020; stroke-width: 0px;"/>
    <path d="M11.21,54.81c-.06.07-.3.11-.3.26l.07.05c-.11-.12.35-.15.23-.3Z" style="fill: #202020; stroke-width: 0px;"/>
    <path d="M13.06,53.94c-.08.08-.15.16-.22.25.12,0,.28,0,.24.15.47-.21-.26-.04-.02-.39Z" style="fill: #202020; stroke-width: 0px;"/>
    <path d="M13.69,53.14c-.04.18.14.07.19.11-.03-.14-.04-.18-.19-.11Z" style="fill: #202020; stroke-width: 0px;"/>
    <path d="M17.4,46.91l.21.15c.04-.13-.08-.06-.21-.15Z" style="fill: #202020; stroke-width: 0px;"/>
    <polygon points="17.08 45.02 16.87 45.04 17.03 45.22 17.08 45.02" style="fill: #202020; stroke-width: 0px;"/>
    <polygon points="19.05 45.36 19.05 45.43 19.1 45.19 19.05 45.36" style="fill: #202020; stroke-width: 0px;"/>
    <path d="M26.33,35.63l-.27-.17c-.02.11.24.35.27.17Z" style="fill: #202020; stroke-width: 0px;"/>
    <path d="M29.54,31.46c.16.06.33.02.28-.15-.1.07-.27.08-.28.15Z" style="fill: #202020; stroke-width: 0px;"/>
    <polygon points="40.96 20.53 40.95 20.67 41.04 20.47 40.96 20.53" style="fill: #202020; stroke-width: 0px;"/>
  </g>
  <g>
    <path d="M54.3,46.65c.08-.05.19-.2.1-.23l-.26.21.16.02Z" style="fill: #202020; stroke-width: 0px;"/>
    <path d="M54.27,45.8c-.18.05-.46.18-.61.45.29-.17.22-.05.55-.26.09.03.04.18-.05.26.08-.04.05.14.22.02.09-.27-.01-.37-.26-.31.03-.08.11-.12.15-.16Z" style="fill: #202020; stroke-width: 0px;"/>
    <path d="M49.08,39.38v.07s0-.05,0-.07Z" style="fill: #202020; stroke-width: 0px;"/>
    <path d="M45.76,35.42s.07,0,.09-.01c-.04,0-.08-.02-.09.01Z" style="fill: #202020; stroke-width: 0px;"/>
    <path d="M45.36,34.55s.02.04.02.05c0-.04,0-.06-.02-.05Z" style="fill: #202020; stroke-width: 0px;"/>
    <path d="M49.08,39.38v-.17c-.1.06-.02.11,0,.17Z" style="fill: #202020; stroke-width: 0px;"/>
    <path d="M52.88,45.6s.07,0,.12-.01c-.03,0-.05-.01-.08-.02l-.04.03Z" style="fill: #202020; stroke-width: 0px;"/>
    <path d="M50.74,40.93l.03.03s.08-.04.12-.06l-.15.03Z" style="fill: #202020; stroke-width: 0px;"/>
    <path d="M51.91,42.19s-.24.14-.34.21c.1-.06.16-.08.2-.06.04-.04.08-.08.14-.15Z" style="fill: #202020; stroke-width: 0px;"/>
    <path d="M53.4,44.51h.06s-.04,0-.06,0Z" style="fill: #202020; stroke-width: 0px;"/>
    <path d="M49.99,39.95s.05-.06.07-.08c-.03.02-.05.05-.07.08Z" style="fill: #202020; stroke-width: 0px;"/>
    <path d="M9.17,13.66s.02-.02.04-.04c-.03.01-.04.02-.04.04Z" style="fill: #202020; stroke-width: 0px;"/>
    <polygon points="8.77 11.23 8.8 11.24 8.92 11.14 8.77 11.23" style="fill: #202020; stroke-width: 0px;"/>
    <path d="M44.39,33.16h0c.05.01.03,0,0,0Z" style="fill: #202020; stroke-width: 0px;"/>
    <path d="M31.78,25.15c.03.3-.39.16-.3.52.03-.11.41-.28.3-.52Z" style="fill: #202020; stroke-width: 0px;"/>
    <path d="M52.87,45.54s-.04-.03-.05-.05c.02.03.03.05.05.05Z" style="fill: #202020; stroke-width: 0px;"/>
    <path d="M31.48,25.67h0s.01.04.01.04c0-.02,0-.02,0-.04Z" style="fill: #202020; stroke-width: 0px;"/>
    <path d="M41.32,30.94s-.03.08-.04.12c.02-.02.03-.06.04-.12Z" style="fill: #202020; stroke-width: 0px;"/>
    <path d="M43.28,32.98l-.03-.07s.02.06.03.07Z" style="fill: #202020; stroke-width: 0px;"/>
    <path d="M39.9,30.42s0-.08-.07-.08c0,.01,0,.03,0,.04.04-.02.07-.02.08.04Z" style="fill: #202020; stroke-width: 0px;"/>
    <path d="M38.65,29.58s0,.04,0,.06h.05s-.04-.06-.04-.06Z" style="fill: #202020; stroke-width: 0px;"/>
    <path d="M12.74,16.64c.02-.08.06-.16.1-.24-.11.17-.33.09-.1.24Z" style="fill: #202020; stroke-width: 0px;"/>
    <path d="M52.99,45.48c-.06.04-.09.06-.12.06.01.01.03.02.05.02.03-.03.06-.05.07-.08Z" style="fill: #202020; stroke-width: 0px;"/>
    <path d="M38.59,32.21l-.16-.17c.04.06.1.12.16.17Z" style="fill: #202020; stroke-width: 0px;"/>
    <path d="M21.85,22.49h-.06s.04.02.06,0Z" style="fill: #202020; stroke-width: 0px;"/>
    <path d="M37.84,31.69c.02-.1.02-.18,0-.23-.02.01-.04.02-.06.05l.06.19Z" style="fill: #202020; stroke-width: 0px;"/>
    <path d="M12.84,16.4h0s0,0,0,0Z" style="fill: #202020; stroke-width: 0px;"/>
    <path d="M11.18,15.9c.17.16.32-.2.49-.33.27.1-.08.29-.13.5.19.04.51-.13.6-.05-.03.05-.03.09-.1.13.33-.12.44.32.83.16,0,.04-.02.06-.04.09.09-.17.2-.32.29-.42.08.06.29-.07.17.15-.04-.04-.11.03-.18.07l.15-.02c-.14.33-.19,0-.35.21.24.04.6-.04.67.14-.18.29-.37-.14-.38.23l-.12-.26c-.18.54-.1-.12-.31.44.2.28.4.09.6.37.17-.11.15-.24.32-.34.57.01-.22.91.32.76.2-.13.48-.46.55-.13l-.29.26c.24.21.47-.35.59.05-.14.09-.28-.04-.27.03,0,.37.25-.09.39,0l-.17.3c.31.15.76.16,1.1.32-.07.07-.19.12-.17.26.48.13.8.61,1.09,1.01l.31-.16s0,.15-.08.18c.09.19.11-.15.24-.2.1.04.02.21-.08.25.4-.04,1.04.01,1.15.46l-.1.04c.16.24.56-.36.61,0l-.07.02c.41.4,1.07.46,1.21,1.06.28-.33.38.44.7-.06.13.41,0,.46.29.85.09.08.33-.23.49-.22l-.15.27.33-.19-.09.37h.16s-.03-.18.02-.25c.26-.02.35.44.28.58h.57c-.07.12-.16.11-.26.15.39-.15-.11.31.24.17,0-.08.1-.15.14-.2.02.22.27.36.49.39l-.14.17c.3.23.74.29,1.11.49-.09-.16.12-.47.24-.44l-.11.31c.16-.14-.06-.17.2-.31.12.11-.08.38-.21.43h.22c-.04.08-.1.1-.17.21.16-.14.14.44.4.18l-.04.09c.37.2.59.19.9.33.14-.25.23-.13.42-.28.18.2.32.52.6.64.25-.03.17-.18.33-.29-.1.23.17.35-.05.44.34.13.43.17.94.2,0-.12-.02-.18.04-.25.09,0,.12.18.05.29h-.03c.64-.09.7,1.22,1.31.94h-.03s.5-.03.5-.03c.15.13-.19.12-.14.32.6-.16.61.39,1.07.32-.1.8.93.44,1.04,1.05l.07-.17c.17-.1.06.15.1.22.06-.13-.02-.19.08-.25.85.23,1.43,1.07,2.08,1.66.25.2.62-.7.75-.13l-.27.23c.75,0,1.13.66,1.83.72-.07.04-.12.13-.18.09-.02.28.4.27.51.11.07.07-.08.16-.08.28.04.19.44-.08.38.16-.01.04-.07.05-.1.05.14-.05.32.24.4-.04.13.24.45.14.51.38.27-.19.26.34.53,0-.26.36.13.54.37.45-.12.08.02.19-.13.31.14.09.31.11.42-.09-.06.62.76,0,.5.67.55.1,1.04.22,1.45.43-.29.35-.41-.28-.69.12.45.11.87-.03,1.14.32.05.12-.17.11-.25.15.45.12.62.55,1.07.6-.03.03-.09.04-.14.04.07.04.09.16.22,0h-.09c.1-.31.63-.29.75-.4-.48.37.2.35-.44.79.06,0,.17-.03.25-.14.03.08,0,.16-.16.22.27.1.34-.13.52.04-.07.07-.13.07-.22.14.22-.06.44-.12.53.08-.05.04-.08.11-.13.07.28.22.79.03.95.44-.38.23,0,.19-.24.48l.23.06.06-.19c.13.13.44.05.47.24l-.21.02c.1.06.2.12.3.19l-.04-.24c.27,0,.32-.35.42-.1-.06,0,.13.14.04.36h0c.15-.02.3-.04.33.13-.06.11-.32.27-.36.34.29-.15.36.25.68.11-.08.03-.23.16-.25.19l.24-.12c0,.12-.02.15-.14.25.14.22.29-.38.35-.02-.03,0-.05.03-.11.02.13.3.52.33.62.63-.22.31-.23-.12-.41.16.32.25.9.33,1.09.69l-.02-.08c.44-.31,0,.4.31.38-.06-.01-.27.14-.21.11.11.26.46.34.85.54l-.14.05c.01.2.22.37.28.54.14-.05.18.04.3-.13-.25.91.98.51.79,1.29-.04-.04-.18-.03-.15,0l.36.23c.16-.17.07-.13.15-.31.14-.05.29-.03.36.04-.23-.04-.28.24-.33.39.05-.06.12-.09.17-.14-.17.43.38-.28.35.12l-.1.07c.12.04.3.01.35.12-.17.21-.17,0-.34.13.12.11.59-.09.49.2-.1,0-.17-.08-.27-.08-.13.33-.06.29-.02.41h0s.08.29.08.29l.02-.11c.66-.31.37.23.9.13-.5.09-.22.13-.45.32-.02.11-.01.25-.1.29.27-.07,0,.29.4.19-.07.07.09.11-.11.25.17.08.1-.15.2-.22.42-.03.13.73.73.7.36.11.64-.08.97.02-.04.18-.31.19-.31.19.01.22.12.29.31.32-.08.04-.11.11-.15.23.11.07.31-.2.33.02-.1.06-.24.16-.36.2.17.04.4,0,.57.05-.09.15-.24.12-.36.17.18.06.43.2.65.04l-.02-.15c.05.03-.13.19-.2.2-.25.05-.09-.22-.03-.29l.12.03c.31-.49-.38-.23-.52-.41l.36-.24-.4.09c.04-.11.18-.3.3-.27.04-.26-.2,0-.13-.25.01-.04.03-.05.05-.05l-.19-.02c.08-.04.19-.22.21-.12-.02-.36-.53-.09-.37-.38h.03c-.36-.17-.24.19-.7.23l.41-.66-.25.18s-.05-.11.04-.18c-.25.04-.08.11-.28.18.08-.33-.45-.29-.12-.65-.22.11-.01.25-.27.21.35-.39-.22-.11-.16-.4.23-.14.24.07.3-.21-.41.23-.15-.31-.31-.36-.28.24-.32-.13-.57-.23.1-.07-.15-.47-.19-.73l.05-.03c-.31.21-.4-.02-.57-.09.17-.14.26-.17.39-.17l-.1-.12c-.11.05-.19.05-.29,0l.23-.15c-.15-.15-.52-.12-.56-.44-.21.15-.4.63-.72.52.1-.1.27-.26.36-.24-.03,0-.14,0-.13-.07l.25-.06c0-.16-.19.08-.24-.01.15-.13.06-.15.19-.24.03,0,0,.12.08.1-.04-.11-.04-.29.04-.42-.08.08-.2.17-.28.13-.15-.15.13-.21.13-.37-.14.05-.12-.15-.34.04-.04-.05.06-.15.1-.22-.17,0-.36-.37-.52-.07v.03s-.01,0-.02,0h0s0,0,0,0c-.46-.08-.35-.68-.69-.87l.08-.06c-.23-.09-.36-.32-.62-.29-.04-.05.04-.23.14-.29-.16-.07-.26-.02-.29-.3.24.01.08-.14.21.04-.08-.22.01-.36-.34-.35.24-.11.13-.33,0-.36l-.03.23c-.1-.06-.15-.15-.21-.24l.28-.18c0-.6-1.04-.12-.78-.83-.25.07.04.29-.23.4-.1-.18.1-.66.05-.71-.06-.33-.53.15-.64-.14-.06.11-.26.36-.49.28-.11-.17.17-.52.33-.5.04.03.03.07,0,.1.08.02.17.04.21-.11l-.1.06c.01-.16-.2-.34-.02-.43-.19-.03-.18.09-.14.22-.07-.3-.3-.28-.41-.55-.01.08-.08.2-.11.17-.19-.37-.28.05-.51-.1.01-.23.33-.28.03-.35-.04-.2.19-.26.3-.28-.34,0-.24-.43-.31-.55l.16.02c-.1-.01-.14-.06-.19-.1l-.1.23c-.03-.08-.08-.13,0-.2-.16.06-.22.34-.47.39,0-.16-.31-.11-.13-.37.16.3.18-.26.41-.12-.06,0-.11-.05-.14-.14.01-.03.05-.04.08-.04-.04-.42-.33.17-.57-.04.15-.11.16-.3.1-.31.1.08-.14.26-.32.29-.07-.23-.24-.06-.31-.14l.05.13c-.15.11-.21.03-.35-.01.08-.11.16,0,.16-.07-.32.14-.07-.47-.37-.44,0-.16.2-.27.18-.38-.33.03-.06-.36-.38-.37-.09.23-.04.2-.33.27l.43.13-.43.1c.1.08.3.05.34.13-.22.07-.17.03-.25.23.09-.39-.4-.05-.4-.37l.37-.46c-.08-.4-.6-.11-.83-.45l.04.16c-.18.16-.22-.11-.38-.11.13-.15.1-.26.13-.39-.08.12-.23-.18-.49.12v-.31c-.19-.27-.61.25-.82.02.2-.12.17-.32.42-.32-.08-.06-.14-.14-.22-.03.02-.14-.38.06-.35-.15-.08.05-.21.21-.3.13.01-.04.06-.08.06-.08-.06.08-.22,0-.26.24.1-.7-.75-.44-.68-1.03-.22-.06-.48-.15-.66-.25.04-.04.05-.08.07-.04-.13-.3-.45.39-.6.05.04-.36.23-.06.21-.21.31-.57-.37-.13-.34-.56h.06c-.02-.28-.46-.01-.66-.18,0,0,.04-.04.05-.08-.33.19-.68.11-.94.06.2-.18.17-.06.26-.3-.12-.03-.18.37-.42.32,0-.16-.07-.34.05-.59l.19.1c.09-.36-.24-.13-.31-.24l.09-.13c-.31-.12-.51.21-.8.01l-.03.12c-.36.24-.03-.27-.34-.12l.15-.37c-.16.02-.57.11-.81.07.26-.19.56-.2.79-.27-.11-.07-.39-.18-.54-.04.06,0,.17-.06.18.02-.29.2-.54.23-.75.1.41-.65-.47-.48-.35-1.09-.52.04-.71-.54-1.19-.74-.12.61-.14-.06-.4.5-.12-.02-.16-.05-.15-.09l-.15-.49c0-.2.16-.07.22-.19-.21-.16.02-.28-.05-.51-.07.21-.23.23-.32.09l.05.35c-.48.12-.04-.6-.52-.49l.19-.12c-.22.01-.62-.33-1.01.02,0-.08.04-.25.14-.25-.37-.28-1.13,0-1.3-.43l.1-.12c-.09,0-.26.18-.28,0,.03-.05.1-.12.07-.14-.06.02-.32.13-.38,0l.16-.1c-.3-.38-.79.05-1.16-.03.2-.39-.03-.68-.15-.82l.03-.05c-.43-.29-.94-.08-1.44-.15-.03-.56-.79-.64-1.07-1.1.02.1-.17.3-.27.3-.05-.13-.41.12-.21-.22l.03.03c.12-.39-.13-.4-.28-.5l-.28.45c-.04-.9-1.2-.33-1.09-1.06-.16.06-.28,0-.44.05l.14-.24c-.23-.22-.35-.32-.71-.46l.17-.14c-.18-.12-.64.57-.82.49l.16-.4c-.33-.18-.47-.69-.98-.55.04-.05.11-.15.17-.13-.15-.1-.43-.6-.68-.07.19-.33-.31-.24-.57-.2l.17-.22c-.33.21-.39.29-.64.25-.03-.06.08-.22.1-.12-.08-.22-.27.15-.38-.1l.17-.11c-.15-.12-.19-.03-.39.09-.16.03-.28-.25-.16-.48-.11.12-.31.23-.37.11.04-.09.11-.12.14-.13-.17-.33-.58,0-.61-.35.05-.08.06-.13.06-.16.21.15.37.28.34.29.14-.21,0-.37.33-.57-.24.07-.71.26-.81.04,0-.03.01-.05.03-.09h.03c-.02-.06-.07-.06-.13-.05-.03-.07-.04-.12-.09-.16.1-.19-.13-.23-.21-.29-.15.24-.24.12-.27.38,0-.03.04-.02.1.01.02,0,.04,0,.05,0l-.02.02c.06.03.14.08.22.13-.15.07-.29.12-.29-.07-.15.12-.3.24-.38.29.11-.4,0-.73.11-.95-.35-.05-.67-.33-1.14-.03-.11,0,0-.19.03-.27.07-.01.12.03.18-.01-.22,0-.45-.28-.71-.02-.08-.27.31-.19.02-.33l.1-.06c-.11-.83-1.37.13-1.43-.88,0,.06.01.1-.02.15-.37-.75-1.4-.82-1.62-1.72-.09-.22-.27-.06-.49-.02l.17-.25-.4.09c-.4-.05.14-.93-.48-.88l-.11.18c-.07-.13-.41-.25-.22-.39-.04.01-.19.11-.15,0l.11-.11-.45-.07c-.11-.28.49-.39.24-.7-.15-.07-.64,0-.68.11.04.05.03.18-.08.29l-.16-.05c-.36.29-.8.52-.8,1h.38s-.11.2-.11.2l-.15-.14c-.08.23.12.16.27.13-.07.1-.11.18-.11.24l.49-.13c-.11.15-.34.17-.3.35.23-.06.22-.36.45-.32-.07.23-.22.32,0,.3-.07.1-.15.13-.23.13.19-.01.27.19.49.07-.1.27.34.25.01.55.1-.05.4-.09.49-.02-.51.23.27.33-.16.69.44-.23.56.22.94.21-.04.02-.11.05-.11.02.09.13.02.27.04.4.28-.28.52-.18.77-.28-.11.41-.39.27-.59.58.21-.24.45-.02.58-.26-.05.27.02.17-.14.46.34-.35.15.03.44-.12,0,.32-.26.38,0,.42-.02.19-.28.18-.28.18ZM15.98,18.47h0s-.08-.03-.1-.04c.02,0,.05.02.1.04ZM16.35,18.72s-.09-.08-.15-.12c.04-.09.11-.16.14-.13-.06.04,0,.15,0,.25ZM16.68,16.58c.08,0,.07.06.04.12-.03-.01-.07-.03-.12-.04l-.03.02s.07-.08.1-.1Z" style="fill: #202020; stroke-width: 0px;"/>
    <path d="M16.37,16.81s-.02,0-.03,0c0,.03,0,.05,0,.08l.07-.06-.03-.02Z" style="fill: #202020; stroke-width: 0px;"/>
    <path d="M49.09,39.46h0s0,.01-.02.03c0-.01.01-.02.02-.03Z" style="fill: #202020; stroke-width: 0px;"/>
    <polygon points="21.35 22.37 21.38 22.31 21.32 22.34 21.35 22.37" style="fill: #202020; stroke-width: 0px;"/>
    <path d="M49.92,41.94s-.03.04-.03.07c.01-.01.02-.04.03-.07Z" style="fill: #202020; stroke-width: 0px;"/>
    <path d="M50.57,42.78l.02.18c0-.09-.01-.14-.02-.18Z" style="fill: #202020; stroke-width: 0px;"/>
    <path d="M51,43.48s.07-.05.1-.07h0s-.1.07-.1.07Z" style="fill: #202020; stroke-width: 0px;"/>
    <path d="M42.12,34.46s-.02,0-.03,0c-.09,0-.04.01.03,0Z" style="fill: #202020; stroke-width: 0px;"/>
    <path d="M45.32,36.5c-.06,0-.13.01-.18,0,.03.06.06.1.18,0Z" style="fill: #202020; stroke-width: 0px;"/>
    <polygon points="38.61 32.22 38.61 32.22 38.59 32.21 38.61 32.22" style="fill: #202020; stroke-width: 0px;"/>
    <path d="M45.03,36.38c0,.09.05.12.12.13-.02-.05-.05-.12-.12-.13Z" style="fill: #202020; stroke-width: 0px;"/>
    <path d="M53.4,46.13l.02.04s.02-.02.03-.03h-.06Z" style="fill: #202020; stroke-width: 0px;"/>
    <path d="M53.46,46.13h.05s-.03-.02-.05,0Z" style="fill: #202020; stroke-width: 0px;"/>
    <path d="M53.63,46.15h-.12s.05.05.12,0Z" style="fill: #202020; stroke-width: 0px;"/>
    <path d="M52.7,45.27l-.08.06s.05-.03.08-.06Z" style="fill: #202020; stroke-width: 0px;"/>
    <path d="M52.45,45.06c.04.07-.01.29.11.33l.06-.05c-.14.07,0-.35-.17-.28Z" style="fill: #202020; stroke-width: 0px;"/>
    <path d="M52.42,43.21l.12.25c.05-.11.11-.25.21-.18,0-.47-.13.22-.34-.07Z" style="fill: #202020; stroke-width: 0px;"/>
    <path d="M51.98,42.48c.13.07.12-.11.17-.14-.13,0-.17,0-.17.14Z" style="fill: #202020; stroke-width: 0px;"/>
    <path d="M48.02,37.86l.2-.16c-.1-.06-.08.06-.2.16Z" style="fill: #202020; stroke-width: 0px;"/>
    <polygon points="46.26 37.87 46.21 38.06 46.42 37.94 46.26 37.87" style="fill: #202020; stroke-width: 0px;"/>
    <polygon points="47.13 36.13 47.19 36.14 46.99 36.06 47.13 36.13" style="fill: #202020; stroke-width: 0px;"/>
    <path d="M39.01,29.52l-.14.28c.1,0,.31-.29.14-.28Z" style="fill: #202020; stroke-width: 0px;"/>
    <path d="M35.04,27.45c.04-.16-.02-.31-.16-.22.08.07.1.23.16.22Z" style="fill: #202020; stroke-width: 0px;"/>
    <polygon points="23.6 20.72 23.73 20.67 23.54 20.67 23.6 20.72" style="fill: #202020; stroke-width: 0px;"/>
  </g>
</svg>